<?xml version="1.0" standalone="no"?>
<!DOCTYPE svg PUBLIC "-//W3C//DTD SVG 20010904//EN"
 "http://www.w3.org/TR/2001/REC-SVG-20010904/DTD/svg10.dtd">
<svg version="1.0" xmlns="http://www.w3.org/2000/svg"
 width="479.000000pt" height="479.000000pt" viewBox="0 0 479.000000 479.000000"
 preserveAspectRatio="xMidYMid meet">
<metadata>
Created by potrace 1.14, written by Peter Selinger 2001-2017
</metadata>
<g transform="translate(0.000000,479.000000) scale(0.100000,-0.100000)"
fill="#000000" stroke="none">
<path d="M2367 4714 c-1 -1 -54 -4 -117 -8 -63 -3 -124 -7 -135 -10 -30 -6
-96 -16 -130 -20 -43 -6 -200 -44 -270 -66 -284 -89 -550 -230 -770 -408 -86
-69 -289 -270 -335 -332 -19 -25 -38 -47 -41 -50 -22 -16 -184 -272 -231 -365
-55 -109 -101 -213 -114 -260 -1 -5 -12 -35 -22 -65 -20 -53 -59 -191 -68
-237 -13 -70 -31 -176 -40 -243 -10 -75 -11 -349 -2 -454 8 -85 33 -246 52
-326 3 -14 8 -34 10 -45 12 -52 77 -245 85 -250 5 -3 24 21 41 52 18 32 50 81
71 109 l40 52 -15 43 c-27 81 -57 247 -71 393 -5 49 -6 307 -1 346 2 19 7 64
11 100 3 36 15 108 27 160 11 52 21 100 22 105 9 49 89 264 135 360 184 385
460 689 831 913 68 42 276 142 293 142 7 0 17 4 23 9 5 4 54 22 109 39 124 38
132 40 175 47 19 3 55 11 80 16 171 39 526 46 700 14 14 -3 36 -7 50 -10 14
-2 50 -10 80 -16 279 -55 602 -206 840 -392 364 -285 631 -692 744 -1134 46
-179 64 -322 64 -518 -1 -173 -9 -264 -38 -414 -5 -30 -9 -55 -8 -57 2 -1 30
-18 63 -37 33 -19 73 -47 88 -61 15 -14 30 -26 32 -26 5 0 43 168 50 224 3 27
8 52 10 56 7 11 18 208 18 310 1 125 -10 266 -27 365 -2 11 -7 38 -11 60 -9
57 -53 229 -76 300 -117 353 -305 654 -576 922 -341 338 -799 569 -1263 638
-106 16 -374 36 -383 29z"/>
<path d="M2247 4414 c-1 -1 -36 -5 -77 -8 -41 -4 -82 -9 -90 -11 -8 -2 -33 -6
-54 -10 -135 -20 -391 -106 -541 -183 -118 -60 -325 -195 -365 -237 l-25 -26
80 6 c85 6 147 10 290 20 50 4 108 8 130 10 22 2 86 7 143 10 99 7 106 9 163
47 121 81 309 140 537 169 66 8 95 16 100 27 8 23 -34 94 -86 147 l-47 46 -78
-3 c-43 -2 -79 -4 -80 -4z"/>
<path d="M2930 4343 c0 -3 11 -21 25 -39 36 -47 73 -131 81 -182 l6 -43 57 5
c65 6 188 15 279 21 35 2 66 6 69 8 14 15 -223 134 -367 185 -125 44 -150 52
-150 45z"/>
<path d="M2640 4318 c0 -2 9 -21 20 -43 31 -61 26 -92 -20 -136 -41 -39 -76
-53 -165 -64 -89 -11 -120 -15 -145 -21 -14 -3 -36 -8 -50 -10 -146 -27 -289
-93 -364 -167 -47 -48 -86 -111 -86 -140 0 -7 -7 -25 -16 -42 -23 -44 -55
-126 -62 -160 -14 -62 -6 -209 12 -265 38 -111 124 -255 191 -319 39 -36 95
-113 95 -130 0 -6 4 -11 9 -11 14 0 24 -60 26 -156 2 -75 7 -101 29 -149 34
-74 140 -179 259 -258 l87 -57 0 -50 c0 -66 -31 -131 -95 -199 -27 -30 -68
-73 -90 -97 -93 -99 -158 -196 -168 -254 -5 -24 -3 -25 60 -25 60 0 67 -2 94
-33 33 -36 37 -71 15 -124 l-15 -34 54 -60 c30 -32 55 -62 55 -66 0 -4 6 -13
13 -20 36 -38 100 -162 89 -174 -4 -4 0 -5 8 -2 8 3 15 13 16 24 1 25 13 136
21 204 12 103 14 99 -62 157 -111 86 -103 80 -172 124 -18 12 -31 24 -28 29 2
4 80 22 173 40 l169 33 54 164 c29 89 56 163 59 163 4 0 14 -15 23 -32 9 -18
37 -69 62 -113 25 -44 52 -94 60 -112 8 -18 23 -36 32 -41 10 -5 92 -12 183
-15 91 -4 166 -6 168 -7 4 0 2 -2 -131 -138 -89 -91 -107 -114 -103 -133 3
-13 14 -58 25 -99 11 -41 22 -87 25 -102 14 -70 17 -82 22 -89 14 -24 -27 -10
-157 50 l-145 67 -31 -20 c-17 -12 -66 -46 -110 -75 -43 -30 -94 -66 -113 -79
-19 -13 -34 -29 -32 -34 1 -6 3 -35 3 -65 1 -47 -3 -59 -24 -79 -14 -13 -46
-29 -71 -36 -42 -11 -46 -10 -81 16 -35 27 -37 27 -56 10 -27 -24 -20 -59 35
-185 46 -104 115 -214 167 -267 42 -43 30 -52 -23 -17 -94 60 -201 200 -245
318 -19 51 -31 57 -57 28 -16 -17 -16 -22 0 -67 9 -27 29 -75 45 -106 16 -32
25 -58 20 -58 -15 0 -76 74 -110 133 -27 47 -37 57 -53 51 -44 -14 -103 -10
-166 12 l-67 22 -45 -26 c-24 -15 -49 -27 -55 -28 -31 -5 -110 -52 -108 -64 1
-8 13 -44 28 -78 29 -69 28 -99 -2 -83 -10 6 -67 33 -128 62 l-110 52 -191 1
c-130 1 -190 -1 -188 -9 12 -28 454 -291 454 -269 0 3 12 -2 28 -10 49 -28
281 -108 302 -105 3 0 17 -4 33 -10 15 -6 38 -13 50 -15 75 -14 147 -26 182
-31 22 -4 51 -9 65 -12 42 -9 452 -12 505 -3 28 4 73 10 100 14 172 20 470
105 587 167 10 5 25 9 33 9 8 0 15 5 15 10 0 6 6 10 14 10 23 0 217 110 331
188 61 41 112 78 115 81 3 3 26 23 51 43 26 21 84 73 130 117 81 78 83 80 59
90 -14 5 -63 26 -109 46 l-85 35 -30 -27 c-17 -16 -41 -38 -54 -50 -14 -13
-38 -33 -54 -45 -16 -13 -41 -33 -56 -45 -50 -42 -50 -38 -1 129 26 90 38 146
44 209 5 49 13 49 98 3 261 -142 370 -172 497 -133 55 18 122 59 163 103 39
42 92 135 101 177 3 13 8 35 11 49 4 14 9 68 12 120 6 112 -11 199 -57 289
-35 70 -67 92 -285 196 -217 105 -262 137 -346 252 -61 83 -152 181 -212 230
-32 26 -135 73 -192 89 -67 19 -341 30 -364 15 -11 -7 -8 -17 16 -52 42 -61
105 -188 98 -199 -3 -5 -18 -5 -34 0 -16 4 -67 8 -114 8 -69 0 -95 -4 -129
-21 -23 -12 -43 -27 -45 -32 -4 -14 110 -132 182 -187 60 -46 231 -148 248
-148 5 0 25 9 43 21 l33 20 -33 47 c-40 57 -63 107 -71 152 -3 18 -8 37 -11
42 -3 4 -2 8 3 8 4 0 24 -28 43 -61 19 -34 58 -85 86 -115 52 -53 52 -53 107
-50 117 6 251 -26 300 -72 24 -22 28 -34 27 -72 -1 -25 -1 -50 -1 -57 1 -17
46 -9 131 25 78 31 117 34 170 12 28 -11 40 -29 23 -31 -30 -3 -64 -14 -151
-49 -104 -41 -127 -48 -177 -49 -27 -1 -30 -5 -32 -33 -1 -18 7 -70 18 -116
22 -95 24 -166 6 -202 -15 -30 -98 -73 -175 -89 -83 -18 -89 -20 -89 -34 0 -6
-15 -54 -32 -106 -49 -148 -144 -316 -249 -439 -52 -62 -67 -62 -25 0 36 52
113 211 122 250 1 4 9 24 17 45 9 20 17 44 19 52 2 9 10 43 18 76 28 113 30
143 7 150 -35 11 -91 75 -118 133 -28 61 -34 143 -18 248 5 40 3 62 -12 100
-11 27 -18 65 -17 85 3 34 0 37 -44 58 -86 42 -242 153 -316 225 -135 131
-197 255 -199 398 -1 70 -4 88 -16 89 -143 10 -202 24 -270 62 -41 23 -88 72
-101 106 -14 35 -4 37 28 6 15 -14 62 -43 103 -63 75 -37 75 -37 205 -37 148
1 190 13 263 80 63 56 83 107 89 226 3 56 11 125 19 153 8 28 17 62 20 75 3
14 8 29 11 35 4 5 8 42 9 80 3 66 0 76 -37 142 -42 77 -45 92 -28 156 10 38 8
54 -20 147 -36 121 -66 177 -115 214 -32 25 -34 29 -25 59 13 45 11 153 -3
199 -24 81 -121 160 -217 175 -23 4 -41 5 -41 2z"/>
<path d="M3847 3674 c-1 -1 -49 -5 -107 -8 -58 -3 -132 -9 -165 -12 -33 -3
-82 -7 -110 -8 -134 -8 -261 -19 -266 -22 -4 -2 -4 -19 1 -37 4 -20 2 -50 -6
-76 -12 -42 -11 -46 24 -115 31 -62 36 -81 38 -151 l2 -80 39 1 c44 1 230 13
288 19 22 3 78 7 125 10 47 3 110 7 140 10 30 2 127 10 215 16 88 6 162 13
163 14 6 6 -77 165 -125 238 -26 40 -70 103 -97 140 l-50 68 -53 -2 c-29 -1
-54 -3 -56 -5z"/>
<path d="M1517 3504 c-1 -1 -51 -5 -112 -9 -60 -3 -126 -8 -145 -10 -19 -3
-78 -7 -130 -10 -52 -3 -117 -7 -145 -10 -27 -2 -90 -7 -140 -10 -144 -10
-179 -16 -193 -33 -27 -33 -122 -235 -156 -330 -19 -53 -37 -105 -42 -116 -7
-17 -2 -18 102 -12 60 4 125 8 144 11 19 2 80 7 135 10 55 3 123 8 150 10 28
3 86 7 130 10 83 5 193 13 280 20 28 2 91 7 140 10 149 11 177 13 180 17 2 2
-12 35 -30 73 -46 95 -67 183 -71 290 l-4 90 -45 0 c-25 1 -47 0 -48 -1z"/>
<path d="M4337 2774 c-1 -1 -49 -5 -107 -9 -58 -4 -123 -8 -145 -10 -22 -2
-83 -6 -135 -9 -52 -4 -120 -9 -150 -11 -214 -17 -215 -17 -435 -31 -55 -3
-109 -7 -120 -9 -11 -2 -33 -4 -50 -4 -24 -1 -35 -10 -57 -45 -16 -24 -28 -45
-28 -47 0 -2 71 -4 157 -4 170 0 218 -5 303 -31 126 -38 218 -98 332 -217 l67
-70 85 7 c47 3 125 9 174 12 153 10 173 12 180 19 12 12 3 286 -12 360 -2 11
-7 38 -10 60 -6 32 -11 41 -27 41 -11 0 -21 -1 -22 -2z"/>
<path d="M1738 2585 c-2 -1 -52 -5 -113 -9 -60 -4 -123 -8 -140 -10 -16 -2
-77 -7 -135 -11 -58 -4 -123 -9 -145 -10 -22 -2 -87 -6 -145 -10 -58 -4 -116
-8 -130 -10 -14 -2 -77 -7 -140 -10 -63 -4 -122 -8 -130 -10 -8 -2 -73 -7
-145 -11 -79 -4 -133 -11 -137 -18 -8 -11 -3 -257 6 -306 2 -14 7 -47 11 -74
11 -82 3 -78 134 -70 64 3 118 8 121 9 3 2 37 4 75 6 39 1 78 6 87 11 9 4 38
48 64 96 94 173 135 221 239 278 118 65 190 77 451 78 247 1 245 1 277 55 l18
31 -60 -1 c-33 -1 -61 -2 -63 -4z"/>
<path d="M1965 2513 c-59 -72 -78 -114 -81 -183 -2 -54 17 -164 30 -178 3 -2
37 8 77 23 51 18 102 28 169 32 52 3 97 8 100 10 2 2 -15 21 -40 41 -97 80
-180 187 -197 252 -5 18 -13 35 -18 37 -6 1 -23 -14 -40 -34z"/>
<path d="M2893 2518 c-28 -7 -43 -17 -47 -31 -8 -33 1 -139 17 -182 17 -46 23
-47 110 -15 32 11 78 22 103 23 24 1 44 5 44 10 0 26 -159 209 -178 206 -4 -1
-26 -6 -49 -11z"/>
<path d="M1340 2374 c-177 -33 -242 -84 -340 -269 -64 -121 -98 -157 -192
-205 -316 -162 -371 -214 -469 -439 -42 -98 -79 -172 -90 -181 -36 -30 -35
-116 4 -221 42 -116 67 -144 167 -193 82 -40 262 -108 321 -120 13 -3 69 -14
123 -26 325 -67 685 -33 922 88 l40 20 30 -22 c95 -74 196 -50 308 73 23 25
63 67 89 93 l49 48 25 -50 c25 -50 47 -66 78 -54 15 6 17 16 12 71 -7 86 -44
150 -164 276 -25 26 -53 64 -63 85 -18 36 -17 37 3 73 12 21 18 43 14 53 -6
16 -15 17 -66 12 -48 -5 -186 -46 -196 -58 -21 -26 -115 -178 -150 -243 -26
-46 -51 -87 -56 -90 -13 -9 -124 21 -193 53 -34 15 -125 73 -204 129 -78 57
-169 116 -201 133 -66 33 -183 68 -218 65 -41 -3 -24 14 20 20 84 13 203 -17
331 -83 56 -28 62 -29 88 -16 15 8 29 13 30 12 2 -2 32 17 67 42 79 55 146
129 179 198 15 28 29 52 33 52 13 0 -13 -115 -37 -166 -27 -58 -100 -138 -164
-180 -22 -15 -40 -30 -40 -35 0 -21 174 -118 241 -134 24 -6 30 -1 63 59 20
36 57 96 82 133 42 63 45 72 50 147 7 132 37 256 84 359 14 30 35 38 26 10 -3
-10 -8 -36 -12 -58 -3 -22 -9 -58 -13 -80 -4 -22 -8 -84 -10 -137 -2 -76 1
-98 11 -98 18 1 63 26 64 37 5 76 77 211 161 299 157 166 204 227 186 245 -4
4 -47 13 -96 20 -111 17 -201 3 -300 -46 -39 -19 -74 -35 -77 -35 -13 0 -70
136 -80 189 -5 30 -10 76 -10 102 l0 49 -72 1 c-40 1 -129 2 -198 3 -69 1
-154 -3 -190 -10z"/>
<path d="M3520 1815 c-68 -14 -97 -31 -106 -65 -9 -32 -5 -71 9 -89 13 -15 15
-103 5 -201 -9 -93 22 -174 82 -213 36 -23 128 -16 231 18 79 27 80 35 44 218
-15 73 -16 97 -6 135 6 26 13 56 16 67 3 11 8 36 11 56 6 34 4 37 -33 52 -76
30 -173 39 -253 22z"/>
</g>
</svg>
